Coordinates
version=1
nRows=21
nColumns=12
inDegrees=yes

Units are S.I. units (second, meters, Newtons, ...)
Angles are in degrees

endheader
time	SC_y	SC_z	SC_x	AC_y	AC_z	AC_x	GH_y	GH_z	GH_yy	EL_x	PS_y
       0.0              -47.94          16.27           61.1          46.96         -7.359         -16.18         -140.6          40.75         -106.2          129.6          87.78
  0.009899              -47.94          16.27          61.09          46.96         -7.357         -16.18         -140.5          40.75         -106.2          129.6          87.78
    0.0198              -47.93          16.27          61.09          46.96         -7.354         -16.17         -140.5          40.74         -106.2          129.6          87.77
    0.0297              -47.93          16.27          61.08          46.96         -7.352         -16.17         -140.5          40.74         -106.2          129.6          87.77
    0.0396              -47.92          16.27          61.08          46.96         -7.349         -16.17         -140.5          40.74         -106.2          129.6          87.77
   0.04949              -47.91          16.27          61.07          46.96         -7.346         -16.16         -140.4          40.74         -106.2          129.6          87.77
   0.05939              -47.91          16.26          61.07          46.96         -7.343         -16.16         -140.4          40.74         -106.2          129.6          87.77
   0.06929               -47.9          16.26          61.06          46.96         -7.339         -16.16         -140.4          40.74         -106.3          129.6          87.76
   0.07919              -47.89          16.26          61.05          46.96         -7.336         -16.15         -140.3          40.73         -106.3          129.6          87.76
   0.08909              -47.89          16.26          61.05          46.96         -7.332         -16.15         -140.3          40.73         -106.3          129.5          87.76
   0.09899              -47.88          16.26          61.04          46.96         -7.328         -16.14         -140.3          40.73         -106.3          129.5          87.75
    0.1089              -47.87          16.26          61.03          46.96         -7.323         -16.14         -140.2          40.72         -106.3          129.5          87.75
    0.1188              -47.86          16.26          61.02          46.96         -7.318         -16.13         -140.2          40.72         -106.3          129.5          87.75
    0.1287              -47.85          16.26          61.01          46.96         -7.313         -16.13         -140.1          40.72         -106.3          129.5          87.74
    0.1386              -47.84          16.26           61.0          46.96         -7.307         -16.12         -140.1          40.71         -106.3          129.5          87.74
    0.1485              -47.83          16.26          60.99          46.96         -7.301         -16.11         -140.0          40.71         -106.3          129.5          87.73
    0.1584              -47.81          16.26          60.98          46.96         -7.294         -16.11         -140.0          40.71         -106.3          129.5          87.73
    0.1683               -47.8          16.25          60.96          46.96         -7.287          -16.1         -139.9           40.7         -106.3          129.5          87.72
    0.1782              -47.79          16.25          60.95          46.96         -7.279         -16.09         -139.8           40.7         -106.3          129.5          87.72
    0.1881              -47.77          16.25          60.93          46.96          -7.27         -16.08         -139.7          40.69         -106.3          129.5          87.71
     0.198              -47.75          16.25          60.92          46.96         -7.261         -16.07         -139.6          40.68         -106.3          129.5          87.71
